<mxfile host="app.diagrams.net" modified="2024-02-19T16:18:58.225Z" agent="Mozilla/5.0 (Windows NT 10.0; Win64; x64; rv:122.0) Gecko/20100101 Firefox/122.0" etag="rQxmdAehPB0oiWqIhXWz" version="23.1.5" type="device">
  <diagram name="Page-1" id="HOamRKEhcgr0epngXT2c">
    <mxGraphModel dx="1434" dy="764" grid="1" gridSize="10" guides="1" tooltips="1" connect="1" arrows="1" fold="1" page="1" pageScale="1" pageWidth="850" pageHeight="1100" math="0" shadow="0">
      <root>
        <mxCell id="0" />
        <mxCell id="1" parent="0" />
        <mxCell id="oRODH1_oDBL0VGA5POtY-21" value="" style="edgeStyle=orthogonalEdgeStyle;rounded=0;orthogonalLoop=1;jettySize=auto;html=1;" edge="1" parent="1" source="oRODH1_oDBL0VGA5POtY-1" target="oRODH1_oDBL0VGA5POtY-3">
          <mxGeometry relative="1" as="geometry" />
        </mxCell>
        <mxCell id="oRODH1_oDBL0VGA5POtY-1" value="&lt;h1&gt;&lt;font style=&quot;font-size: 18px;&quot;&gt;start&lt;/font&gt;&lt;/h1&gt;" style="ellipse;whiteSpace=wrap;html=1;" vertex="1" parent="1">
          <mxGeometry x="245" y="130" width="230" height="60" as="geometry" />
        </mxCell>
        <mxCell id="oRODH1_oDBL0VGA5POtY-2" style="edgeStyle=orthogonalEdgeStyle;rounded=0;orthogonalLoop=1;jettySize=auto;html=1;exitX=0.5;exitY=1;exitDx=0;exitDy=0;" edge="1" parent="1" source="oRODH1_oDBL0VGA5POtY-1" target="oRODH1_oDBL0VGA5POtY-1">
          <mxGeometry relative="1" as="geometry" />
        </mxCell>
        <mxCell id="oRODH1_oDBL0VGA5POtY-28" value="" style="edgeStyle=orthogonalEdgeStyle;rounded=0;orthogonalLoop=1;jettySize=auto;html=1;" edge="1" parent="1" source="oRODH1_oDBL0VGA5POtY-3" target="oRODH1_oDBL0VGA5POtY-25">
          <mxGeometry relative="1" as="geometry" />
        </mxCell>
        <mxCell id="oRODH1_oDBL0VGA5POtY-3" value="T" style="shape=parallelogram;perimeter=parallelogramPerimeter;whiteSpace=wrap;html=1;fixedSize=1;" vertex="1" parent="1">
          <mxGeometry x="240" y="230" width="240" height="60" as="geometry" />
        </mxCell>
        <mxCell id="oRODH1_oDBL0VGA5POtY-6" value="Input" style="text;html=1;align=center;verticalAlign=middle;whiteSpace=wrap;rounded=0;" vertex="1" parent="1">
          <mxGeometry x="160" y="245" width="60" height="30" as="geometry" />
        </mxCell>
        <mxCell id="oRODH1_oDBL0VGA5POtY-29" value="" style="edgeStyle=orthogonalEdgeStyle;rounded=0;orthogonalLoop=1;jettySize=auto;html=1;" edge="1" parent="1" source="oRODH1_oDBL0VGA5POtY-10" target="oRODH1_oDBL0VGA5POtY-16">
          <mxGeometry relative="1" as="geometry" />
        </mxCell>
        <mxCell id="oRODH1_oDBL0VGA5POtY-10" value="A = T * H" style="rounded=0;whiteSpace=wrap;html=1;" vertex="1" parent="1">
          <mxGeometry x="245" y="440" width="230" height="70" as="geometry" />
        </mxCell>
        <mxCell id="oRODH1_oDBL0VGA5POtY-11" value="&lt;div&gt;Process&lt;/div&gt;" style="text;html=1;align=center;verticalAlign=middle;whiteSpace=wrap;rounded=0;" vertex="1" parent="1">
          <mxGeometry x="160" y="460" width="60" height="30" as="geometry" />
        </mxCell>
        <mxCell id="oRODH1_oDBL0VGA5POtY-15" value="&lt;h1&gt;&lt;font style=&quot;font-size: 18px;&quot;&gt;End&lt;/font&gt;&lt;/h1&gt;" style="ellipse;whiteSpace=wrap;html=1;" vertex="1" parent="1">
          <mxGeometry x="245" y="660" width="230" height="60" as="geometry" />
        </mxCell>
        <mxCell id="oRODH1_oDBL0VGA5POtY-24" value="" style="edgeStyle=orthogonalEdgeStyle;rounded=0;orthogonalLoop=1;jettySize=auto;html=1;" edge="1" parent="1" source="oRODH1_oDBL0VGA5POtY-16" target="oRODH1_oDBL0VGA5POtY-15">
          <mxGeometry relative="1" as="geometry" />
        </mxCell>
        <mxCell id="oRODH1_oDBL0VGA5POtY-16" value="A" style="shape=parallelogram;perimeter=parallelogramPerimeter;whiteSpace=wrap;html=1;fixedSize=1;" vertex="1" parent="1">
          <mxGeometry x="240" y="550" width="240" height="60" as="geometry" />
        </mxCell>
        <mxCell id="oRODH1_oDBL0VGA5POtY-18" value="Output" style="text;html=1;align=center;verticalAlign=middle;whiteSpace=wrap;rounded=0;" vertex="1" parent="1">
          <mxGeometry x="160" y="560" width="60" height="30" as="geometry" />
        </mxCell>
        <mxCell id="oRODH1_oDBL0VGA5POtY-30" value="" style="edgeStyle=orthogonalEdgeStyle;rounded=0;orthogonalLoop=1;jettySize=auto;html=1;" edge="1" parent="1" source="oRODH1_oDBL0VGA5POtY-25" target="oRODH1_oDBL0VGA5POtY-10">
          <mxGeometry relative="1" as="geometry" />
        </mxCell>
        <mxCell id="oRODH1_oDBL0VGA5POtY-25" value="H" style="shape=parallelogram;perimeter=parallelogramPerimeter;whiteSpace=wrap;html=1;fixedSize=1;" vertex="1" parent="1">
          <mxGeometry x="240" y="340" width="240" height="60" as="geometry" />
        </mxCell>
        <mxCell id="oRODH1_oDBL0VGA5POtY-26" value="Input" style="text;html=1;align=center;verticalAlign=middle;whiteSpace=wrap;rounded=0;" vertex="1" parent="1">
          <mxGeometry x="160" y="360" width="60" height="30" as="geometry" />
        </mxCell>
      </root>
    </mxGraphModel>
  </diagram>
</mxfile>
